<svg width="1024" height="1024" viewBox="0 0 1024 1024" xmlns="http://www.w3.org/2000/svg">
  <defs>
    
  </defs>
  
      <!-- Background square -->
      <rect x="0" y="0" width="1024" height="1024" fill="#B33062"/>
      
      <!-- Text "a+q" -->
      <path d="M271.08 462.96L277.16 423.82Q290.46 415.08 305.28 411.28Q320.10 407.48 336.82 407.48L336.82 407.48Q397.24 407.48 397.24 464.10L397.24 464.10L397.24 544.66Q397.24 562.90 411.68 562.90L411.68 562.90Q418.14 562.90 423.08 560.62L423.08 560.62L423.46 578.10Q413.20 583.80 401.42 583.80L401.42 583.80Q371.40 583.80 370.64 549.60L370.64 549.60L370.64 548.84Q362.66 562.52 348.03 573.16Q333.40 583.80 312.88 583.80L312.88 583.80Q296.16 583.80 278.87 573.54Q261.58 563.28 261.58 536.30L261.58 536.30Q261.58 504.38 286.85 494.31Q312.12 484.24 340.62 484.24L340.62 484.24Q348.22 484.24 356.01 484.62Q363.80 485 370.64 485.76L370.64 485.76L370.64 470.56Q370.64 452.32 362.85 440.92Q355.06 429.52 332.26 429.52L332.26 429.52Q313.64 429.52 299.58 436.36L299.58 436.36L293.12 465.62L271.08 462.96ZM370.64 516.54L370.64 516.54L370.64 503.62Q363.42 503.24 355.44 502.48Q347.46 501.72 339.10 501.72L339.10 501.72Q320.10 501.72 304.71 507.61Q289.32 513.50 289.32 533.26L289.32 533.26Q289.32 549.60 299.58 555.68Q309.84 561.76 320.86 561.76L320.86 561.76Q338.34 561.76 353.73 549.60Q369.12 537.44 370.64 516.54Z M493.38 483.48L436.38 483.48L436.38 462.96L493.38 462.96L493.38 407.10L513.52 407.10L513.52 462.96L568.24 462.96L568.24 483.48L513.52 483.48L513.52 538.96L493.38 538.96L493.38 483.48Z M774.96 639.28L774.96 660.94L682.62 660.94L682.62 639.28L722.14 639.28L722.14 545.42Q714.54 561 700.10 572.40Q685.66 583.80 661.72 583.80L661.72 583.80Q630.18 583.80 609.66 562.14Q589.14 540.48 589.14 500.20L589.14 500.20Q589.14 478.16 596.74 456.69Q604.34 435.22 621.06 421.35Q637.78 407.48 664.38 407.48L664.38 407.48Q684.14 407.48 700.29 416.03Q716.44 424.58 724.42 440.16L724.42 440.16Q725.18 432.94 725.94 425.53Q726.70 418.12 728.22 410.90L728.22 410.90L754.82 410.90Q752.16 424.20 750.64 437.12Q749.12 450.04 749.12 463.34L749.12 463.34L749.12 639.28L774.96 639.28ZM722.14 505.14L722.14 505.14L722.14 479.68Q722.14 458.40 706.75 444.34Q691.36 430.28 670.08 430.28L670.08 430.28Q642.34 430.28 629.80 450.80Q617.26 471.32 617.26 497.54L617.26 497.54Q617.26 529.08 632.08 545.04Q646.90 561 668.18 561L668.18 561Q692.12 561 706.75 542.57Q721.38 524.14 722.14 505.14Z" fill="white"/>
</svg>
